<?xml version="1.0" encoding="UTF-8" standalone="no"?>
<svg
   xmlns:dc="http://purl.org/dc/elements/1.1/"
   xmlns:cc="http://creativecommons.org/ns#"
   xmlns:rdf="http://www.w3.org/1999/02/22-rdf-syntax-ns#"
   xmlns:svg="http://www.w3.org/2000/svg"
   xmlns="http://www.w3.org/2000/svg"
   xmlns:sodipodi="http://sodipodi.sourceforge.net/DTD/sodipodi-0.dtd"
   xmlns:inkscape="http://www.inkscape.org/namespaces/inkscape"
   width="435"
   height="460"
   viewBox="0 0 460 435"
   id="svg1001"
   version="1.1"
   inkscape:version="0.91 r13725"
   sodipodi:docname="regionmap.svg">
  <title
     id="title1002">Landkarte Baden-W&#252;rttemberg</title>
  <metadata
     id="metadata1003">
    <rdf:RDF>
      <cc:Work
         rdf:about="">
        <dc:format>image/svg+xml</dc:format>
        <dc:type
           rdf:resource="http://purl.org/dc/dcmitype/StillImage" />
        <dc:title>Landkarte Baden-W&#252;rttemberg</dc:title>
        <cc:license
           rdf:resource="http://creativecommons.org/licenses/by-nc-sa/3.0/" />
      </cc:Work>
      <cc:License
         rdf:about="http://creativecommons.org/licenses/by-nc-sa/3.0/">
        <cc:permits
           rdf:resource="http://creativecommons.org/ns#Reproduction" />
        <cc:permits
           rdf:resource="http://creativecommons.org/ns#Distribution" />
        <cc:requires
           rdf:resource="http://creativecommons.org/ns#Notice" />
        <cc:requires
           rdf:resource="http://creativecommons.org/ns#Attribution" />
        <cc:prohibits
           rdf:resource="http://creativecommons.org/ns#CommercialUse" />
        <cc:permits
           rdf:resource="http://creativecommons.org/ns#DerivativeWorks" />
        <cc:requires
           rdf:resource="http://creativecommons.org/ns#ShareAlike" />
      </cc:License>
    </rdf:RDF>
  </metadata>
  <defs
     id="defs1004" >
      <!-- der Script Bereich -->
      <script type="text/javascript">
      <![CDATA[
        function handleMouseOver(element) {
          element.setAttribute("fill-opacity","0.5");
	};
	function handleMouseOut(element) {
          element.setAttribute("fill-opacity","1")
	};
	function handleMouseClick(element) {
          alert(element.id);
	};
	function svgMouseOver(evt) {
          handleMouseOver(document.getElementById(evt.target.id));
	};
	function svgMouseOut(evt) {
          handleMouseOut(document.getElementById(evt.target.id));
	};
	function svgMouseClick(evt) {
          handleMouseClick(document.getElementById(evt.target.id));
	};
	function getSvgElementByTextEvent(evt) {
          return document.getElementById(evt.target.id.substring(11,evt.target.id.lastIndexOf("-X")));
	};
	function svgTextMouseOver(evt) {
          handleMouseOver(getSvgElementByTextEvent(evt));
	};
	function svgTextMouseOut(evt) {
          handleMouseOut(getSvgElementByTextEvent(evt));
	};
	function svgTextMouseClick(evt) {
          handleMouseClick(getSvgElementByTextEvent(evt));
	};
      ]]>
      </script>
  </defs>
  <sodipodi:namedview
     pagecolor="#ffffff"
     bordercolor="#666666"
     borderopacity="1"
     objecttolerance="10"
     gridtolerance="10"
     guidetolerance="10"
     inkscape:pageopacity="0"
     inkscape:pageshadow="2"
     inkscape:window-width="1920"
     inkscape:window-height="1018"
     id="namedview1005"
     showgrid="false"
     units="px"
     inkscape:zoom="1.7740255"
     inkscape:cx="192.7191"
     inkscape:cy="238.90763"
     inkscape:window-x="-8"
     inkscape:window-y="-8"
     inkscape:window-maximized="1"
     inkscape:current-layer="svg4136" />
  <path
     id="Baden-W&#252;rttemberg"
     d="m 47.533121,96.682785 c -1.179841,2.457843 1.417725,4.316345 2.427991,1.476323 2.751307,2.271792 0.953768,3.110322 0.723628,5.666942 2.735813,1.30761 4.191024,-1.10663 4.814652,-1.7797 2.97429,1.02038 2.118204,6.30989 6.267847,2.81206 -4.685838,-3.83422 3.158672,-3.667 4.466376,-0.46643 0.904905,3.43666 5.180276,4.20331 3.123836,-0.56043 -2.182527,-1.68006 -8.062804,-8.14933 -2.303488,-3.74597 4.400617,2.18389 6.834129,7.2113 12.26169,6.836 3.827425,1.98517 5.841343,5.59784 10.355544,1.33078 3.023065,-0.16626 4.901495,-4.90745 8.139695,-2.69483 2.732508,0.38985 4.371668,-2.99769 6.450968,-0.1152 3.28295,-2.27105 -0.43311,-1.27879 0.83403,-4.55213 -3.10273,-2.721369 1.65379,-3.025341 -0.41183,-6.421341 -0.0853,-2.873556 -0.36177,-6.002006 0.85704,-8.475307 1.33195,-4.814041 -2.28669,-8.988047 -1.92538,-13.808419 0.39261,-3.607275 -5.539304,-6.601373 -0.58783,-9.425048 2.45368,-4.154194 4.04901,0.522737 6.60802,-3.756752 3.04393,-1.906657 3.12963,-6.807399 1.12177,-10.030873 0.37728,-3.928071 4.39268,3.077598 6.12761,-0.757582 0.31678,3.794469 2.83442,-2.417855 -0.40016,-2.930545 -0.25802,-3.418877 1.63105,-6.692831 0.56505,-10.29441 -0.5369,-5.542314 -8.00626,-4.809969 -7.57023,-10.273118 -0.95343,-3.735448 -6.27906,-6.031889 -3.13297,-10.710213 -2.78299,-3.565436 3.08299,-5.4415054 -1.09377,-8.5866994 0.11022,-3.1696182 -1.91679,-4.96065165 -3.64917,-1.9008378 -4.545158,2.4847939 -2.365584,-7.5625414 -6.711974,-3.80722625 0.267109,-3.18119075 0.711411,-9.57189715 -3.294374,-7.50834725 -2.334342,-1.533047 -4.779623,0.9780009 -3.890881,-3.6668393 -0.194177,-2.741648 -3.623385,0.515952 -5.203964,-1.082428 -2.278604,-0.201268 -2.968323,0.790062 -5.076089,0.520939 -2.870131,0.578271 1.456713,2.5285553 2.431445,2.9375343 0.884099,3.0244229 -2.956839,2.7225869 -4.704691,3.8884886 0.106467,5.32419035 -7.873063,1.9737335 -7.141485,6.4061842 -4.894555,0.4606754 -6.219912,3.7752872 -9.593731,6.8159689 -3.623593,-1.2357357 2.401729,-7.76102035 -4.240322,-6.9202068 -1.430898,-1.32341055 -2.83873,-8.172925 -4.404248,-3.2135917 0.451332,7.9235208 -8.021673,-4.8162863 -7.396115,2.39651225 1.750643,3.65305915 4.016719,7.37055105 1.379716,11.29176725 0.470747,2.402652 -0.268339,3.84049 -2.650846,5.604665 0.2105,5.233269 -2.511484,10.294294 -5.594291,14.395786 -4.012115,1.387403 -4.583282,5.920891 -7.078725,8.754837 -5.081211,2.236152 -3.124164,7.074727 -7.854577,9.75577 -2.731282,2.441313 -2.02653,6.203689 -4.185849,8.802068 -2.322184,2.933939 0.51333,7.539416 -2.410013,9.848171 -0.693855,3.004873 -2.396339,5.548383 -3.82701,8.270663 -1.1054451,2.740227 -3.7111122,5.223324 -1.4418181,8.322721 2.3091761,2.378057 -1.0024241,5.068476 -1.2797121,7.668719 0.188724,4.034527 -2.8772159,7.73447 -1.3884163,11.63579 0.1924803,4.79008 7.2961315,3.3964 4.6537025,6.98787 3.446159,2.55263 7.256911,-4.62935 10.87484,-0.32138 5.835707,2.4346 10.634223,-5.91459 15.209769,-0.59268 3.520138,1.02548 6.296982,-3.6031 8.880269,-2.03146 3.561178,-2.01582 -0.54036,-4.69716 -3.307411,-2.3746 -4.503997,-2.16855 1.462007,-7.273441 3.776292,-8.051241 0.453664,-0.505644 0.984854,-1.131948 1.39959,-1.570724 z"
     inkscape:connector-curvature="0"
     style="fill:none;stroke:#000000;stroke-width:1"
     onmouseover="svgMouseOver(evt)"
     onmouseout="svgMouseOut(evt)"
     onclick="svgMouseClick(evt)"
     inkscape:label="#Baden-W&#252;rttemberg" />
  <path
     id="Heilbronn-Franken"
     d="m 216.02984,134.78515 c 1.47001,3.91001 7.4746,5.23913 10.8246,5.71913 4.15001,0.59999 7.88002,3.23 12.2,2.36001 4.26001,-0.87001 8.34,-5.66001 14.99999,-3.87001 3.39998,0.90999 5.29,3.11001 8.44998,4.25999 6.06999,2.21001 9.22999,-0.49 13.16998,-0.91999 5.84999,-0.62999 12.59997,3.64999 14.02997,-4.82 l 6.56998,2.82 c 1.43,-1.57 3.87001,-4.34 5.82,-5.09 3.51999,-1.35 15.41997,2.82999 19.49996,4.15 l -1.60999,3.75 c -2.17001,6.96001 4.89998,7.18001 7.92998,9.32001 3.09999,2.17998 2.61999,4.78 6.89999,6.50998 9.03997,3.65001 14.11997,-0.64998 19.60996,7.63001 l 5.62999,-0.94 c 2.32998,-9.35 9.45999,-7.16999 16.87997,-10.32 -0.74002,-3.11001 -3.96999,-8.90999 -2.9,-11.16001 0.7,-1.47999 2.27,-2.45999 3.84998,-2.73999 l 5.62001,0.49 7.49998,-0.75 c 4.17997,-0.53 5.85999,-2.2 8.28996,-2.02 1.55002,0.13001 10.26998,5.06999 12.16,-0.85 1.09998,-3.41001 -0.97,-5.60001 -1.81,-8.3 -1.25,-4.07999 0.89998,-5.79001 -1.38999,-9.12001 -2.89002,-4.2 -11.16998,-8.38999 -13.32998,-12.49998 -3.73999,-7.10999 1.97001,-14.740023 2.35998,-17.010045 0.87002,-4.980011 -2.55,-7.950035 -3.45,-10.730033 -1.56997,-4.850024 0.65003,-8.890049 5.62001,-9.750056 l 0,-5.63002 c -11.77999,-5.719999 -1.82001,-19.210058 -14.06997,-23.450069 -1.91999,6.48001 -3.93999,7.300026 -10.31998,8.680027 -1.91001,0.410008 -4.36001,0.880003 -5.84999,-0.800001 -0.98,-1.110002 -1.29999,-5.130012 -1.84999,-6.940026 -1.23001,-4.02001 -3.49,-7.570015 -5.43,-11.260029 -1.91001,1.389999 -6.38999,5.920024 -8.50998,3.990007 -3.10001,-2.410001 -0.61999,-8.550016 0,-11.500016 0.63001,-1.600011 1.45999,-4.06001 1.50998,-5.630009 0.06,-2.350013 -1.75998,-9.8800169 -3.72997,-11.2400323 -1.78999,-1.219997 -5.84999,-0.9499974 -8.03,-0.9499974 l 0,2.8100008 -10.31997,-4.6900098 c -1.59,2.7100033 -4.86999,5.4000208 -6.41999,0.8199965 -1.00998,-3.759998 -0.82998,-10.0800143 0,-13.9500085 l -7.48998,-1.3200043 -5.77,3.0400004 -5.85999,-2.649997 -5.41999,1.0100039 -6.55999,-1.0200019 -0.93999,2.810001 -11.25998,-0.9400001 0,4.6999983 5.62999,3.62999819 2.73,0 c 7.72997,0.31001 3.09999,7.87001801 4.05998,10.23002921 1.47,3.540007 11.36999,5.550007 14.78998,4.900013 l 4.19,4.660006 0.31924,-0.559328 c -2.80999,5.890011 -5.60999,6.03001 -6.94999,9.470019 -1.86,4.820001 1.85,7.890014 2.07,12.110029 0.19,3.75001 -9.28999,16.840049 2.05999,18.700072 l 4.69,0 c 0,2.429996 0.37,8.140008 -0.96,9.940015 -2.42,3.310009 -11.90998,1.120009 -14.97997,-0.49 -3.9,7.930044 -9.41997,5.040021 -16.33997,3.860025 -4.93999,-0.840012 -5.87999,3.050007 -8.15999,6.300029 -2.60999,3.730005 -5.04999,5.970033 -9.26996,7.660025 -6.74,-7.450012 -11.25999,-0.419996 -13.13998,6.570025 -6.89001,-0.620002 -15.21999,-6.43004 -18.86,2.820008 -0.60999,1.550023 -0.67999,3.060028 -0.82999,4.680035 l -6.61999,4.74998 c -3.20001,1.92 -14.38145,5.6326 -18.19144,5.3226 l -0.0694,-0.007 c 0.03,8.40998 -0.21554,11.20504 6.93832,12.46124 l -0.0106,0.0491 c 4.35448,0.87618 2.09776,8.24794 -0.17224,10.92794 z"
     inkscape:connector-curvature="0"
     style="fill:none;stroke:#000000;stroke-width:1"
     onmouseover="svgMouseOver(evt)"
     onmouseout="svgMouseOut(evt)"
     onclick="svgMouseClick(evt)"
     inkscape:label="#Heilbronn-Franken" />
  <path
     id="Rhein-Neckar-Odenwald"
     d="m 295.55434,10.653997 c 1.47,3.540007 11.36999,5.550007 14.78998,4.900013 l 4.19,4.660006 0.31924,-0.559328 c -2.80999,5.890011 -5.60999,6.03001 -6.94999,9.470019 -1.86,4.820001 1.85,7.890014 2.07,12.110029 0.19,3.75001 -9.28999,16.840049 2.05999,18.700072 l 4.69,0 c 0,2.429996 0.37,8.140008 -0.96,9.940015 -2.42,3.310009 -11.90998,1.120009 -14.97997,-0.49 -3.9,7.930044 -9.41997,5.040021 -16.33997,3.860025 -4.93999,-0.840012 -5.87999,3.050007 -8.15999,6.300029 -2.60999,3.730005 -5.04999,5.970033 -9.26996,7.660025 -6.74,-7.450012 -11.25999,-0.419996 -13.13998,6.570025 -6.89001,-0.620002 -15.21999,-6.43004 -18.86,2.820008 -0.60999,1.550023 -0.67999,3.060028 -0.82999,4.680035 l -6.61999,4.74998 c -3.20001,1.92 -14.38145,5.6326 -18.19144,5.3226 l -0.0431,0.0358 c -7.92327,-0.63214 -12.43149,-9.79031 -20.88694,-11.445947 -3.59508,-0.702376 -7.78263,-0.581966 -11.14676,-1.95665 l -7.69226,-4.374887 c -5.89471,-2.337945 -4.31809,0.913115 -10.07223,-5.147497 -0.89375,-0.92313 -2.51053,-2.327906 -3.02268,-3.471786 -2.16909,-4.766206 4.02689,-7.304842 5.11145,-11.0576 0.93391,-2.22757 -0.24102,-3.903258 0,-6.582369 l 1.3858,-10.355181 c -7.22028,-2.4985 -4.61937,-7.445297 -6.16586,-12.081059 -2.44023,-7.35498 -8.18431,-6.431851 -2.30968,-17.098079 3.83608,1.153922 6.14577,1.505117 9.4195,4.08387 3.16327,2.488457 8.51572,9.10093 13.05474,7.535604 6.97927,-2.408182 -0.14059,-20.198609 10.29316,-17.228524 4.31811,1.224155 3.30389,9.753131 6.7182,14.860479 4.78002,7.13423 10.17266,3.070434 15.23388,6.331512 3.98672,2.87978 4.53907,6.291375 0,8.890203 l 0,3.762791 c 0.24104,3.311257 -1.98834,7.134238 1.39586,9.973891 1.06447,0.592009 2.01849,0.682315 3.27375,0 1.03434,-0.150518 11.53842,-9.191238 12.18109,-10.274918 1.50634,-2.498487 0.40169,-5.388308 2.47036,-7.766395 3.13316,-3.592209 7.65212,-1.063605 10.69488,-1.986745 4.84031,-1.464987 1.92809,-4.535402 11.34763,-5.007008 L 249.70925,37.2644 c -0.0803,-3.632336 3.45452,-5.167549 6.55754,-5.568912 6.01523,-0.752558 12.49239,2.980118 15.07323,-4.826397 4.11727,-2.227558 5.43279,-4.996967 6.58764,-9.411967 l 17.61722,-6.801311 z"
     inkscape:connector-curvature="0"
     style="fill:none;stroke:#000000;stroke-width:1"
     onmouseover="svgMouseOver(evt)"
     onmouseout="svgMouseOut(evt)"
     onclick="svgMouseClick(evt)"
     inkscape:label="#Rhein-Neckar-Odenwald" />
  <path
     id="Mittlerer_Oberrhein"
     d="M 159.5272,88.465065 147.705,99.663683 c 0.24375,1.883037 1.37103,5.932077 1.09684,7.317527 -0.58906,2.94653 -3.18894,3.56121 -3.82877,7.40535 -0.73121,4.46853 0.0508,9.21029 -2.15301,13.57155 -2.11242,4.15638 -6.21535,6.34187 -7.47468,8.50786 -1.85851,3.1612 0.27421,6.60531 -5.03728,12.60572 -4.87478,5.5223 -12.03463,6.81019 -16.07665,11.54221 l -13.00963,22.21608 c -2.681172,3.31732 -5.26076,2.80996 -7.525534,4.56618 -2.417076,1.89283 -1.878832,4.09784 -3.706871,6.02964 -2.09211,2.19526 -5.057626,2.09771 -6.489596,3.26855 -2.031162,1.65865 -1.681386,8.99389 0.209395,11.20509 l -0.0036,0.003 c 2.95,-0.34001 12.509488,5.5818 17.079506,6.7718 l 13.12999,4.29 c 1.92,0.57001 5.31,0.79001 6.57999,2.36 0.91001,1.13 0.82001,2.64996 0.93001,3.99996 l 0.0106,0.0102 c 2.76239,3.36603 13.0761,2.70373 16.38689,0.74259 l 1.62932,-2.92372 c 7.90123,-6.97606 9.35355,-4.40029 9.36365,-15.68884 3.24986,-0.91711 5.45088,-1.5187 7.23831,-4.53352 3.4936,-5.88337 -2.08472,-9.78349 -9.56956,-5.72472 l -0.0187,-3.1e-4 -2.67754,-17.55745 14.33263,2.61142 c 0.51793,-6.92729 2.69129,-7.45416 6.04269,-12.89841 3.65611,-5.93209 7.13957,-15.73762 13.96427,-18.87929 4.61073,-2.12697 12.94865,-1.20981 18.09763,-1.17081 0.4164,-3.49292 2.32555,-5.16663 5.30122,-7.53752 5.474,-4.38077 9.16301,-0.16534 14.50893,-6.99399 l 0.0229,-0.001 c 2.27,-2.68 4.52672,-10.05176 0.17224,-10.92794 l 0.0106,-0.0491 c -7.15386,-1.2562 -6.90832,-4.05126 -6.93832,-12.46124 l 0.0263,0.0428 c -7.92327,-0.63214 -12.43149,-9.79031 -20.88694,-11.445947 -3.59508,-0.702376 -7.78263,-0.581966 -11.14676,-1.95665 l -7.69226,-4.374887 c -5.89471,-2.337945 -4.31809,0.913115 -10.07223,-5.147497 z"
     inkscape:connector-curvature="0"
     style="fill:none;stroke:#000000;stroke-width:1"
     onmouseover="svgMouseOver(evt)"
     onmouseout="svgMouseOut(evt)"
     onclick="svgMouseClick(evt)"
     inkscape:label="#Mittlerer_Oberrhein" />
  <path
     id="Ludwigsburg-Rems-Murr"
     d="m 327.91223,152.51453 5.30701,13.43742 8.18002,6.87 0.79998,13.95002 c -6.86999,-0.92002 -8.24999,0.86998 -10.32,-4.69 -5.59,4.96 -6.52999,8.91999 -9.40999,11.66999 -1.98001,1.88 -3.29059,1.27565 -6.07059,3.12565 -2.98,1.98 -5.92,5.84 -10.35,5.24999 l -0.0428,-0.0212 c -4.24569,-0.5394 -3.33735,-5.5414 -7.87897,-5.62965 l -4.69469,0 -5.73568,-0.77483 -0.61483,-0.0663 c -2.2108,-0.32074 -9.00816,-0.15827 -10.8248,0.28308 l 10e-4,0.0386 c -7.24823,0.32201 -3.93875,-7.59496 -4.1379,-11.45618 -0.10176,-1.89975 -2.56613,-5.28744 -4.86574,-6.09733 -1.48557,-0.50995 -11.98929,2.15051 -13.065,4.13949 l 0.0156,0.0244 c -0.71225,1.15986 -1.22618,2.07731 -2.69142,2.76721 -1.394,0.66992 -3.83606,0.34996 -5.45392,0.71992 -4.34482,0.17998 -7.07178,2.36971 -11.44712,0 -3.61223,-1.55983 -5.95646,-5.54745 -9.08027,-6.12739 l 0.0685,-0.0181 c -0.01,-8.94001 -0.051,-10.76665 -3.78091,-18.79664 l 5.63004,-1.88001 -11.39896,-24.46615 -0.0209,0.0183 c 1.47001,3.91001 7.4746,5.23913 10.8246,5.71913 4.15001,0.59999 7.88002,3.23 12.2,2.36001 4.26001,-0.87001 8.34,-5.66001 14.99999,-3.87001 3.39998,0.90999 5.29,3.11001 8.44998,4.25999 6.06999,2.21001 9.22999,-0.49 13.16998,-0.91999 5.84999,-0.62999 12.59997,3.64999 14.02997,-4.82 l 6.56998,2.82 c 1.43,-1.57 3.87001,-4.34 5.82,-5.09 3.51999,-1.35 15.41997,2.82999 19.49996,4.15 l -1.60999,3.75 c -2.17001,6.96001 4.89998,7.18001 7.92998,9.32001 z"
     inkscape:connector-curvature="0"
     style="fill:none;stroke:#000000;stroke-width:1"
     onmouseover="svgMouseOver(evt)"
     onmouseout="svgMouseOut(evt)"
     onclick="svgMouseClick(evt)"
     inkscape:label="#Ludwigsburg-Rems-Murr" />
  <path
     id="Nordschwarzwald"
     d="m 119.42185,270.93965 c 0,0 2.21263,6.94833 8.04554,8.36812 2.38258,0.18902 2.72297,-5.25927 3.28296,-6.95046 6.00979,3.37229 5.18959,7.59358 7.84948,11.57997 1.00998,1.50997 7.44979,4.84201 9.36972,5.84868 2.01992,1.05701 5.77981,2.72803 7.95971,1.01671 2.25994,-1.93278 -0.42995,-4.88228 0,-8.47607 1.12999,-7.01639 7.25978,-10.09676 13.61959,-10.74104 2.38991,-0.25162 13.64954,1.37915 15.77947,2.30526 3.34989,1.43952 8.99948,6.51095 11.26007,2.74143 l 0.0266,-0.0235 c 1.25864,-3.6891 8.41695,-19.5315 6.88695,-23.57149 l -0.0448,-0.0404 c -6.91979,-1.90259 -7.88977,-10.90208 -5.17983,-16.49911 l 3.44986,-5.16413 c 1.55995,-3.46291 1.27999,-7.12712 4.20989,-11.07324 1.88995,-2.53677 6.70981,-6.654 7.33978,-9.76457 1.05997,-5.28493 -8.07976,-9.02969 -6.27982,-14.68709 1.09998,-3.44278 8.47975,-3.90583 11.46967,-4.04676 -0.55997,-4.43935 -0.22756,-13.18749 7.12221,-11.79829 l 0.0119,-0.0544 c -0.01,-8.94001 -0.051,-10.76665 -3.78091,-18.79664 l 5.63004,-1.88001 -11.39896,-24.46615 -0.0153,0.0133 c -5.34592,6.82865 -9.03493,2.61322 -14.50893,6.99399 -2.97567,2.37089 -4.88482,4.0446 -5.30122,7.53752 -5.14898,-0.039 -13.4869,-0.95616 -18.09763,1.17081 -6.8247,3.14167 -10.30816,12.9472 -13.96427,18.87929 -3.3514,5.44425 -5.52476,5.97112 -6.04269,12.89841 l -14.33263,-2.61142 2.67754,17.55745 0.0187,3.1e-4 c 7.48484,-4.05877 13.06316,-0.15865 9.56956,5.72472 -1.78743,3.01482 -3.98845,3.61641 -7.23831,4.53352 -0.0101,11.28855 -1.46242,8.71278 -9.36365,15.68884 l -1.62932,2.92372 c -3.31079,1.96114 -13.6245,2.62344 -16.38689,-0.74259 l 0.002,-0.0272 -5.62983,0 c 3.3999,8.62705 -1.48234,7.30122 -0.54236,18.11271 0.56997,6.68418 5.61981,5.23459 7.14978,11.345 1.82993,7.32845 -3.44991,11.51614 -2.94991,16.05616 z"
     inkscape:connector-curvature="0"
     style="fill:none;stroke:#000000;stroke-width:1"
     onmouseover="svgMouseOver(evt)"
     onmouseout="svgMouseOut(evt)"
     onclick="svgMouseClick(evt)"
     inkscape:label="#Nordschwarzwald" />
  <path
     id="Ostw&#252;rttemberg"
     d="m 374.89004,206.64869 -8.44019,0 -5.63015,0.80496 c -2.90007,0.42733 -10.28024,-0.42734 -12.93031,-1.56025 -3.34009,-1.42111 -4.64012,-5.28693 -7.8702,-7.55273 -4.1801,-2.94161 -12.62305,-4.56783 -17.53316,-4.56783 l -0.0168,-0.0209 c 2.88,-2.75 3.81999,-6.70999 9.40999,-11.66999 2.07001,5.55998 3.45001,3.76998 10.32,4.69 l -0.79998,-13.95002 -8.18002,-6.87 -5.30701,-13.43742 0.002,-0.0506 c 3.09999,2.17998 2.61999,4.78 6.89999,6.50998 9.03997,3.65001 14.11997,-0.64998 19.60996,7.63001 l 5.62999,-0.94 c 2.32998,-9.35 9.45999,-7.16999 16.87997,-10.32 -0.74002,-3.11001 -3.96999,-8.90999 -2.9,-11.16001 0.7,-1.47999 2.27,-2.45999 3.84998,-2.73999 l 5.62001,0.49 7.49998,-0.75 c 4.17997,-0.53 5.85999,-2.2 8.28996,-2.02 1.55002,0.13001 10.26998,5.06999 12.16,-0.85 l 0.001,0.007 1.69978,3.09653 c 2.00005,0.30807 5.59013,1.72918 7.50018,2.55403 8.76022,3.83599 7.09018,4.33288 12.14029,11.83594 2.02006,3.00122 4.45011,4.77016 5.32014,8.43722 l 0.61001,8.29808 c 0.43002,2.3652 1.69003,4.06456 1.45004,6.60865 -0.25003,2.76272 -1.80004,3.82606 -2.29005,5.754 l 0,5.27698 c -0.79002,2.80247 -3.7601,4.1242 -3.02008,9.48069 0.76002,5.48567 5.09013,5.37636 7.24017,9.49062 1.81005,3.45836 0.41001,5.89312 -0.81001,9.15273 l -3.75009,0 0,-4.66084 c -4.77013,0.38758 -5.51014,0.91428 -8.44021,4.66084 l -6.68017,-4.52171 -7.39017,-2.93166 c -0.79003,3.21987 -1.68005,7.97015 0,11.03098 1.31002,2.32545 4.66011,4.30309 5.30013,6.65836 0.88002,3.15027 -2.31662,3.40953 -2.46662,8.45795 -0.17001,5.595 3.25009,13.30675 -6.43015,11.96516 -4.88013,-0.67579 -5.34359,-4.27414 -8.77367,-6.65923 -3.05006,-2.1267 -5.64012,-1.16273 -9.21021,-2.84222 l -11.29028,-7.56269 c -4.2001,-1.43105 -11.57679,1.40895 -13.21684,-3.73886 l -0.0665,-0.0216 c 1.7656,-1.72618 5.47035,-10.01378 6.1337,-12.44611 l -0.12373,-9.01734 z"
     inkscape:connector-curvature="0"
     style="fill:none;stroke:#000000;stroke-width:1"
     onmouseover="svgMouseOver(evt)"
     onmouseout="svgMouseOut(evt)"
     onclick="svgMouseClick(evt)"
     inkscape:label="#Ostw&#252;rttemberg" />
  <path
     id="Stuttgart-B&#246;blingen"
     d="m 203.41643,253.02235 c 1.49638,0.24335 5.10469,0.71634 6.77181,0.56423 3.95691,-8.32366 10.58526,-13.70721 19.78459,-15.10633 2.5308,-0.37511 5.75459,0.48666 8.39587,-0.51707 4.10307,-1.96135 12.61345,-5.3509 16.60111,-5.51477 l 0.0125,-0.0425 c 1.45722,-2.65627 -0.59696,-11.42921 1.56568,-15.06225 l 0.0661,-0.0656 c 1.28323,-2.05302 2.7941,-2.79634 4.47771,-4.42496 l 3.75733,-4.90559 c 4.05501,-4.36267 8.16624,-4.68739 11.43081,-12.04078 l -0.022,0.0506 c -7.24823,0.32201 -3.93875,-7.59496 -4.1379,-11.45618 -0.10176,-1.89975 -2.56613,-5.28744 -4.86574,-6.09733 -1.48557,-0.50995 -11.98929,2.15051 -13.065,4.13949 l 0.0156,0.0244 c -0.71225,1.15986 -1.22618,2.07731 -2.69142,2.76721 -1.394,0.66992 -3.83606,0.34996 -5.45392,0.71992 -4.34482,0.17998 -7.07178,2.36971 -11.44712,0 -3.61223,-1.55983 -5.95646,-5.54745 -9.08027,-6.12739 l 0.0568,0.0362 c -7.34977,-1.3892 -7.68218,7.35894 -7.12221,11.79829 -2.98992,0.14093 -10.36969,0.60398 -11.46967,4.04676 -1.79994,5.6574 7.33979,9.40216 6.27982,14.68709 -0.62997,3.11057 -5.44983,7.2278 -7.33978,9.76457 -2.9299,3.94612 -2.64994,7.61033 -4.20989,11.07324 l -3.44986,5.16413 c -2.70994,5.59703 -1.73996,14.59652 5.17983,16.49911 z"
     inkscape:connector-curvature="0"
     style="fill:none;stroke:#000000;stroke-width:1"
     onmouseover="svgMouseOver(evt)"
     onmouseout="svgMouseOut(evt)"
     onclick="svgMouseClick(evt)"
     inkscape:label="#Stuttgart-B&#246;blingen" />
  <path
     id="Neckar-Fils"
     d="m 374.89004,206.64869 -8.44019,0 -5.63015,0.80496 c -2.90007,0.42733 -10.28024,-0.42734 -12.93031,-1.56025 -3.34009,-1.42111 -4.64012,-5.28693 -7.8702,-7.55273 -4.1801,-2.94161 -12.62305,-4.56783 -17.53316,-4.56783 l -0.0168,-0.0209 c -1.98001,1.88 -3.29059,1.27565 -6.07059,3.12565 -2.98,1.98 -5.92,5.84 -10.35,5.24999 l -0.0428,-0.0212 c -4.24569,-0.5394 -3.33735,-5.5414 -7.87897,-5.62965 l -4.69469,0 -5.73568,-0.77483 -0.61483,-0.0663 c -2.2108,-0.32074 -9.00816,-0.15827 -10.8248,0.28308 l 0.023,-0.012 c -3.26457,7.35339 -7.3758,7.67811 -11.43081,12.04078 l -3.75733,4.90559 c -1.68361,1.62862 -3.19448,2.37194 -4.47771,4.42496 l -0.0661,0.0656 c -2.16264,3.63304 -0.10846,12.40598 -1.56568,15.06225 l -0.039,0.0293 c 4.9584,-0.57644 17.93969,2.32288 20.50924,5.0532 3.48961,1.46949 4.31998,5.01236 7.55258,6.33084 2.61969,1.06687 8.20505,0.16104 11.03233,0.85553 3.282,0.81525 4.68575,2.95909 7.42407,3.85486 5.17017,1.71104 11.61889,-4.78533 15.73129,-2.04767 l 0.0217,0.008 c 2.64335,-0.37515 11.64449,1.03035 14.4392,1.76085 8.17215,-9.94061 10.57564,-4.52507 18.87895,-7.69383 2.97627,-1.1352 5.10506,-3.57347 7.6677,-5.35033 2.8552,-1.97431 8.82221,-4.95737 10.68661,-7.06392 l -0.006,-0.002 c 1.7656,-1.72618 5.47035,-10.01378 6.1337,-12.44611 l -0.12373,-9.01734 z"
     inkscape:connector-curvature="0"
     style="fill:none;stroke:#000000;stroke-width:1"
     onmouseover="svgMouseOver(evt)"
     onmouseout="svgMouseOut(evt)"
     onclick="svgMouseClick(evt)"
     inkscape:label="#Neckar-Fils" />
  <path
     id="S&#252;dlicher_Oberrhein"
     d="m 119.42183,270.93967 c 0,0 2.21263,6.94833 8.04554,8.36812 l 0.0949,-0.22924 c -0.36,3.43 3.21,6.64 3.78,11.99 0.33,3.16 -1.12,5.48 -1.77,8.49 -1.04,4.83 -1.04,11.95 -4.83,15.37 l -3.94,2.37 c -1.19,0.76 -2.88,2.31 -4.09,2.74 -2.9,1 -4.58,-1.13 -7.38,-0.94 l -7.53999,2.94 -0.15445,0.001 0.93259,17.80005 -4.653005,0 c 0,6.51902 0.277982,17.81552 9.415325,18.09506 l -0.0314,-0.19553 c 0.74001,-1.15999 0.99001,-1.97 2.26,-2.80001 3.49003,-2.23999 16.61,-0.11 21.19,0 l -5.62999,10.31 c 4.8,1.79001 5.3,3.79002 8.6,7.50001 5.22999,5.92 8.80655,9.12244 12.69935,16.37036 l -0.10736,-0.0102 c -4.71893,-1.71835 -11.83878,1.54171 -17.32627,1.73426 -5.51999,-0.07 -3.91503,-4.59267 -12.36504,-3.37265 0.65,3.67 2.79002,14.62001 -4.69,12.16 -5.82996,-1.91002 -9.24997,-10.51002 -13.289949,-13.59 -3.890016,-2.97001 -6.290004,-0.48 -9.190011,-1.14001 -2.350003,-0.52999 -3.839994,-2.72 -5.82,-4.00001 -2.789996,-1.78999 -5.100001,-1.81999 -8.279996,-1.86999 -2.400005,-0.0301 -8.930008,-0.40001 -10.710012,0.96 -1.539994,1.17999 -1.34,3.14 -2.979991,5.16 -1.160001,1.42 -4.009996,3.32001 -5.619998,4.35 l -24.780016,12.6 c -2.819997,1.2 -18.50044,7.51026 -19.710444,8.88025 l -0.0039,-0.006 c 1.329994,-9.8 3.049989,-8.23999 4.289993,-13.13 l 0.749998,-7.51001 c 0.760005,-4.02 1.913647,-11.84619 3.353644,-15.70616 l 7.469998,-16.89002 c 0.720009,-3.83 -2.110004,-5.16998 -3.599995,-7.75999 -1.720013,-3.04002 -4.329998,-12.29002 -2.950002,-15.65001 l 4.560003,-6.68999 6.599998,-13.91002 6.129997,-8.51999 c 3.149995,-5.82988 3.430001,-12.17988 4.170004,-13.87987 1.669999,-3.79001 5.909999,-4.10001 6.819994,-7.82002 l 0,-14.88999 c 0.06,-2.86 2.730006,-13.38999 4.039997,-15.76001 1.480014,-2.66 3.840003,-3.28999 5.330015,-6.8 1.850012,-4.31999 0,-9.23 1.899992,-13.09 l 8.780008,-12.44001 c 2.039997,-2.04998 3.340001,-1.96001 6.12,-5.24998 2.259993,-2.67001 4.574222,-6.92761 8.394223,-7.3876 l 1.4e-5,0.0106 c 2.95,-0.34001 12.509488,5.5818 17.079506,6.7718 l 13.12999,4.29 c 1.92,0.57001 5.31,0.79001 6.57999,2.36 0.91001,1.13 0.82001,2.64996 0.93001,3.99996 l 0.0129,-0.017 -5.62983,0 c 3.3999,8.62705 -1.48234,7.30122 -0.54236,18.11271 0.56997,6.68418 5.61981,5.23459 7.14978,11.345 1.82993,7.32845 -3.44991,11.51614 -2.94991,16.05616 z"
     inkscape:connector-curvature="0"
     style="fill:none;stroke:#000000;stroke-width:1"
     onmouseover="svgMouseOver(evt)"
     onmouseout="svgMouseOut(evt)"
     onclick="svgMouseClick(evt)"
     inkscape:label="#S&#252;dlicher_Oberrhein" />
  <path
     id="Ulm-Biberach"
     d="m 317.21447,246.48994 c 2.64335,-0.37515 11.64449,1.03035 14.4392,1.76085 8.17215,-9.94061 10.57564,-4.52507 18.87895,-7.69383 2.97627,-1.1352 5.10506,-3.57347 7.6677,-5.35033 2.8552,-1.97431 8.82221,-4.95737 10.68661,-7.06392 l 0.0603,0.0197 c 1.64005,5.14781 9.01674,2.30781 13.21684,3.73886 l 11.29028,7.56269 c 3.57009,1.67949 6.16015,0.71552 9.21021,2.84222 3.43008,2.38509 3.89354,5.98344 8.77367,6.65923 l -0.006,0.002 c -1.31998,5.80442 -1.3777,3.39128 -4.83763,6.83766 -4.43987,4.41378 -2.56341,5.94597 -9.95323,6.18782 l 0,-3.789 c -7.68981,2.10612 -10.33394,7.53581 -15.78381,12.7759 -2.63993,2.54951 -5.90987,4.74632 -4.72988,8.90817 1.82996,6.50983 8.84977,9.45234 10.02973,13.3421 1.25999,4.1417 0.20001,13.09019 0.68,15.96217 l 2.32994,7.56792 c 0.64997,3.90992 -0.06,6.06642 1.73996,10.39958 1.21996,2.91228 3.6099,5.5525 4.25988,8.50509 0.78999,2.49913 0.04,5.8548 0,8.51516 -0.67997,8.02141 -0.51999,15.94203 -9.53976,18.91478 -3.87989,1.28985 -5.00988,-0.26201 -8.43978,-0.58448 -3.26993,-0.48372 -5.26987,0.75578 -8.4498,0 -2.88991,-0.50386 -4.48988,-2.31774 -7.6598,-2.25728 -2.91992,0.0504 -6.18985,1.77356 -9.21976,2.60997 -3.12992,0.40309 -7.93979,0.2217 -11.25972,0 -1.81994,-5.52225 -5.10986,-4.50447 -10.30973,-4.50447 l 0,2.83166 c -7.8598,-0.0202 -10.44973,-0.84646 -11.25972,-9.45234 l -16.91988,-12.43513 c -4.41989,-2.29759 -6.24984,-1.27979 -10.27975,-2.16658 l -7.50981,-2.27744 c -3.65991,-1.15885 -6.04985,-1.0984 -7.49981,-4.86724 -9.27976,-0.61471 0.24084,-14.14667 4.28074,-16.37373 l 10e-4,-0.008 c 8.92978,2.95268 3.69661,3.10742 14.52634,2.90588 7.6298,-0.14109 8.35979,-3.19446 11.20971,-9.45235 l 3.49991,-9.45233 3.36993,-6.62066 c 0.91996,-2.54953 0.50998,-4.27271 1.99994,-7.55784 3.35991,-7.36638 8.84977,-8.22294 9.71976,-15.12577 0.76998,-5.99589 -3.15993,-8.99887 -4.2199,-14.18859 -0.52999,-2.53942 -1.49774,-5.98099 -4.01768,-7.64373 z"
     inkscape:connector-curvature="0"
     style="fill:none;stroke:#000000;stroke-width:1"
     onmouseover="svgMouseOver(evt)"
     onmouseout="svgMouseOut(evt)"
     onclick="svgMouseClick(evt)"
     inkscape:label="#Ulm-Biberach" />
  <path
     id="Neckar-Alb"
     d="m 223.30193,334.27783 c -3.48724,0.21968 -5.00964,0.91072 -8.94964,0.90072 -1.09,-6.6 -3.11,-4.67 -5.62,-8.75 -1.42,-2.29 -1.76,-7.31 -1.88,-10.02 -6.04,0.14 -7.05,0.58 -12.2,3.76 -0.05,-12.15 -3.45,-7.59 -8.06,-15.95 -1.72,-3.15 -2.28237,-8.36855 -3.52237,-12.43855 l -0.0395,-0.011 8.81,-1.5 4.74591,-13.67038 0.0287,0.0101 c 1.25864,-3.6891 8.41695,-19.5315 6.88695,-23.57149 l -0.0856,-0.0149 c 1.49638,0.24335 5.10469,0.71634 6.77181,0.56423 3.95691,-8.32366 10.58526,-13.70721 19.78459,-15.10633 2.5308,-0.37511 5.75459,0.48666 8.39587,-0.51707 4.10307,-1.96135 12.61345,-5.3509 16.60111,-5.51477 l -0.0265,-0.0132 c 4.9584,-0.57644 17.93969,2.32288 20.50924,5.0532 3.48961,1.46949 4.31998,5.01236 7.55258,6.33084 2.61969,1.06687 8.20505,0.16104 11.03233,0.85553 3.282,0.81525 4.68575,2.95909 7.42407,3.85486 5.17017,1.71104 11.61889,-4.78533 15.73129,-2.04767 l -0.003,-0.008 c 2.51994,1.66274 3.48769,5.10431 4.01768,7.64373 1.05997,5.18972 4.98988,8.1927 4.2199,14.18859 -0.86999,6.90283 -6.35985,7.75939 -9.71976,15.12577 -1.48996,3.28513 -1.07998,5.00831 -1.99994,7.55784 l -3.36993,6.62066 -3.49991,9.45233 c -2.84992,6.25789 -3.57991,9.31126 -11.20971,9.45235 -10.82973,0.20154 -5.59656,0.0468 -14.52634,-2.90588 l -0.0225,0.006 c 1.77998,-8.71002 -13.41881,-14.64674 -20.19881,-13.00673 -4.69,1.12999 -4.6,3.36999 -11.25,4.29999 0.96999,5.74 2.39999,3.89 4.53,7.7 1.23,2.19 1.18,5.76 1.08,8.24 -0.5,12.03 -13,3.81 -18.74,5.14 -5.43,1.24001 -5.18,6.65 -14.08001,8.21 z"
     inkscape:connector-curvature="0"
     style="fill:none;stroke:#000000;stroke-width:1"
     onmouseover="svgMouseOver(evt)"
     onmouseout="svgMouseOut(evt)"
     onclick="svgMouseClick(evt)"
     inkscape:label="#Neckar-Alb" />
  <path
     id="Schwarzwald-Baar-Heuberg"
     d="m 127.56229,279.07855 c -0.36,3.43 3.21,6.64 3.78,11.99 0.33,3.16 -1.12,5.48 -1.77,8.49 -1.04,4.83 -1.04,11.95 -4.83,15.37 l -3.94,2.37 c -1.19,0.76 -2.88,2.31 -4.09,2.74 -2.9,1 -4.58,-1.13 -7.38,-0.94 l -7.53999,2.94 -0.15447,0.001 0.93259,17.80005 -4.653005,0 c 0,6.51902 0.277982,17.81552 9.415325,18.09506 l -0.0314,-0.19553 c 0.74001,-1.15999 0.99001,-1.97 2.26,-2.80001 3.49003,-2.23999 16.61,-0.11 21.19,0 l -5.62999,10.31 c 4.8,1.79001 5.3,3.79002 8.6,7.50001 5.24296,5.94075 16.84573,21.98513 12.69935,16.37036 l -0.0806,0.0581 c 1.78498,1.39169 3.54765,4.85685 4.95157,6.7931 1.59445,2.18836 3.34919,3.44655 5.8943,4.80264 l -0.007,-0.0117 c 5.98,2.14 6.5034,0.3666 9.7534,-3.3234 l 5.38,-5.85 c 4.37,-4.77 5.62,-4.08 7.85,-5.71 2.35,-1.73 2.61,-3.62 6.99,-5.75 l 14.06,-4.48 c 3.07,0.2 3.08516,5.02588 6.40516,4.71588 l 12.21628,-7.46868 c 5.99588,-1.53 13.25585,-3.1924 12.78961,-7.69896 l 0.008,-0.0853 c -1.35999,-1.73 -0.91999,-7.45 -0.95999,-9.76 -0.10001,-5.91 -1.11,-7.48001 -5.62,-11.25 l 4.69,-1.88 c -0.88,-4.01 -1.2,-4.44 -4.69,-6.57 l -3.18522,-1.79325 0.43542,0.41961 c -3.48724,0.21968 -5.00964,0.91072 -8.94964,0.90072 -1.09,-6.6 -3.11,-4.67 -5.62,-8.75 -1.42,-2.29 -1.76,-7.31 -1.88,-10.02 -6.04,0.14 -7.05,0.58 -12.2,3.76 -0.05,-12.15 -3.45,-7.59 -8.06,-15.95 -1.72,-3.15 -2.28237,-8.36855 -3.52237,-12.43855 l -0.0395,-0.011 8.81,-1.5 4.74591,-13.67038 0.002,0.0336 c -2.26059,3.76952 -7.91018,-1.30191 -11.26007,-2.74143 -2.12993,-0.92611 -13.38956,-2.55688 -15.77947,-2.30526 -6.35981,0.64428 -12.4896,3.72465 -13.61959,10.74104 -0.42995,3.59379 2.25994,6.54329 0,8.47607 -2.1799,1.71132 -5.93979,0.0403 -7.95971,-1.01671 -1.91993,-1.00667 -8.35974,-4.33871 -9.36972,-5.84868 -2.65989,-3.98639 -1.83969,-8.20768 -7.84948,-11.57997 -0.55999,1.69119 -0.90038,7.13948 -3.28296,6.95046 z"
     inkscape:connector-curvature="0"
     style="fill:none;stroke:#000000;stroke-width:1"
     onmouseover="svgMouseOver(evt)"
     onmouseout="svgMouseOut(evt)"
     onclick="svgMouseClick(evt)"
     inkscape:label="#Schwarzwald-Baar-Heuberg" />
  <path
     id="Bodensee-Oberschwaben"
     d="m 222.86651,333.85822 3.18522,1.79325 c 3.49,2.13 3.81,2.56 4.69,6.57 l -4.69,1.88 c 4.51,3.76999 5.51999,5.34 5.62,11.25 0.04,2.31 -0.4,8.03 0.95999,9.76 1.63001,2.07 4.66,0.95 7.18001,2.46 1.7,1.02 2.52978,3.02361 3.82979,4.45361 3.23,3.52 9.58608,8.24392 4.84093,14.06392 l -0.0463,-0.016 c -0.90018,1.62184 -7.73863,0.30827 -10.42614,0.61081 l 0.94264,11.35531 0.0647,0.0284 c 4.98351,5.599 17.41692,10.87656 21.79692,14.60655 6.67999,5.69 7.17742,10.62742 16.82742,14.13742 3.61,1.32 7.51,0.49 11.25,0.95 l 12.15,3.71 c 6.29,2.54 3.76,10.03 11.3,11.28 6.4,1.05 11.35,-4.51 16.34,-7.36 3.62,-2.06 5.8,-0.4 9.93,-2.45 l 16.03,-10.73 c 4.7,-1.84 8.03,3.17 13.98,2.31 3.33001,-0.48 10.19,-4.42 13.14,-6.31 2.30001,3.99 3.07,4.47 7.5,5.63 1.87,-2.79 2.36,-2.54 5.63,-2.81 l 0,-5.63 -3.75,1.87 c 1.29,-3.05999 2.67,-6.83 1.31001,-10.15 -0.94,-2.28999 -10.17001,-8.90999 -2.19,-11.27 l 2.74999,0 -2.63,-15.17 0.76,-20.75201 -0.0256,-0.006 c -2.55206,1.76065 -1.50207,1.54842 -5.48868,3.17081 -3.87989,1.28985 -5.00988,-0.26201 -8.43978,-0.58448 -3.26993,-0.48372 -5.26987,0.75578 -8.4498,0 -2.88991,-0.50386 -4.48988,-2.31774 -7.6598,-2.25728 -2.91992,0.0504 -6.18985,1.77356 -9.21976,2.60997 -3.12992,0.40309 -7.93979,0.2217 -11.25972,0 -1.81994,-5.52225 -5.10986,-4.50447 -10.30973,-4.50447 l 0,2.83166 c -7.8598,-0.0202 -10.44973,-0.84646 -11.25972,-9.45234 l -16.91986,-12.43466 c -4.41989,-2.29759 -6.24984,-1.27979 -10.27975,-2.16658 l -7.50981,-2.27744 c -3.65991,-1.15885 -6.04985,-1.0984 -7.49981,-4.86724 -9.27976,-0.61471 0.24084,-14.14667 4.28074,-16.37373 l -0.0214,-0.002 c 1.77998,-8.71002 -13.41881,-14.64674 -20.19881,-13.00673 -4.69,1.12999 -4.6,3.36999 -11.25,4.29999 0.96999,5.74 2.39999,3.89 4.53,7.7 1.23,2.19 1.18,5.76 1.08,8.24 -0.5,12.03 -13,3.81 -18.74,5.14 -5.43,1.24001 -5.18,6.65 -14.08001,8.21 z"
     inkscape:connector-curvature="0"
     style="fill:none;stroke:#000000;stroke-width:1"
     onmouseover="svgMouseOver(evt)"
     onmouseout="svgMouseOut(evt)"
     onclick="svgMouseClick(evt)"
     inkscape:label="#Bodensee-Oberschwaben" />
  <path
     id="Hochrhein-Bodensee"
     d="m 248.43618,386.07296 c -0.90018,1.62184 -7.73863,0.30827 -10.42614,0.61081 l 0.94264,11.35531 -3.76049,0 c 1.73483,3.52964 8.95498,10.22583 12.26421,12.64616 3.7605,2.74303 6.17724,2.32956 8.30318,7.24078 2.77776,6.39366 4.6931,12.05113 -3.64017,14.179 l -7.07974,-10.63931 -6.08699,-7.34162 c -9.01516,-1.24039 -8.80456,-6.3634 -14.10937,-1.89591 l -4.70312,-0.93786 c 0.89248,5.28436 3.40952,6.01045 6.58839,10.40735 -7.06972,4.18513 -7.05969,3.78173 -15.05201,3.78173 -0.42117,-3.21699 -0.64179,-9.52997 -3.1187,-11.59733 l -8.17281,-3.53972 c -0.01,1.87575 0.23065,5.50624 -0.96267,6.99876 -1.57439,1.99675 -11.86312,0.53442 -15.08209,0.56472 l 0,-6.61551 c 9.69706,-4.57843 1.74487,-7.34163 0,-9.28798 -1.43401,-1.36141 -2.05574,-3.19683 -2.76773,-4.91121 l -5.64575,6.6256 c -1.2535,-0.7059 -1.91535,-0.75633 -2.79781,-2.16818 -1.94343,-2.75744 -2.85397,-7.67749 -0.84301,-9.87995 l 0.0263,-0.0801 c 4.37,-4.77 5.62,-4.08 7.85,-5.71 2.35,-1.73 2.61,-3.62 6.99,-5.75 l 14.06,-4.48 c 3.07,0.2 3.08516,5.02588 6.40516,4.71588 l 12.21628,-7.46868 c 5.99588,-1.53 13.25585,-3.1924 12.78961,-7.69896 l 0.008,-0.0853 c 1.63001,2.07 4.66,0.95 7.18001,2.46 1.7,1.02 2.52978,3.02361 3.82979,4.45361 3.23,3.52 9.58608,8.24392 4.84093,14.06392 m -102.142,3.08853 c 1.78498,1.39169 3.54765,4.85685 4.95157,6.7931 1.59445,2.18836 3.34919,3.44655 5.8943,4.80264 -0.50139,4.42718 -7.33187,11.39439 -9.72855,15.12572 -0.95267,1.47234 -2.87804,3.7414 -2.2563,5.5768 0.46129,1.33117 2.21617,2.2993 3.30923,3.06574 3.48974,2.45056 4.25186,3.48927 8.60401,1.93625 3.01843,-1.07905 8.55386,-4.8608 11.69262,-2.86405 4.33208,2.75311 -1.48413,19.81634 -5.10424,9.42914 -2.95825,0.41347 -10.6096,2.87413 -12.91604,4.61878 -1.90531,1.46225 -2.53708,3.44894 -4.40228,4.30613 l -16.50606,1.33118 c -4.72319,-0.64541 -5.12431,-4.49775 -8.05247,-6.84747 -2.0758,-1.66397 -5.45522,-1.73456 -7.98227,-1.30093 -5.36496,0.94796 -12.81574,8.36019 -18.301054,10.32668 -4.291968,1.79506 -13.30713,-0.10084 -18.381284,0 -1.955461,-0.14118 -6.447993,0.0807 -8.082559,-0.66557 -1.915337,-0.88746 -2.42677,-2.85397 -4.40228,-4.03388 -6.00676,-3.60021 -12.865898,-0.0807 -15.733901,5.51632 -11.070889,0.14118 -15.603545,9.70143 -18.812491,-3.78174 l 3.760493,-0.94796 0,-4.7297 c -2.266329,-0.30254 -10.378964,-0.9984 -11.792913,-1.9161 -1.434001,-0.92778 -2.807828,-3.26742 -3.750459,-4.70953 -2.797811,-4.30612 -7.570466,-14.13748 -6.823071,-19.25874 l 0.02754,0.0311 c 1.210004,-1.36999 16.890447,-7.68025 19.710444,-8.88025 l 24.780016,-12.6 c 1.610002,-1.02999 4.459997,-2.93 5.619998,-4.35 1.639991,-2.02 1.439997,-3.98001 2.979991,-5.16 1.780004,-1.36001 8.310007,-0.9901 10.710012,-0.96 3.179995,0.05 5.49,0.08 8.279996,1.86999 1.980006,1.28001 3.469997,3.47002 5.82,4.00001 2.900007,0.66001 5.299995,-1.83 9.190011,1.14001 4.039981,3.07998 7.459991,11.67998 13.289951,13.59 7.48002,2.46001 5.34,-8.49 4.69,-12.16 8.45001,-1.22002 6.84505,3.30265 12.36504,3.37265 5.48749,-0.19255 12.60734,-3.45261 17.32627,-1.73426 z"
     inkscape:connector-curvature="0"
     style="fill:none;stroke:#000000;stroke-width:1"
     onmouseover="svgMouseOver(evt)"
     onmouseout="svgMouseOut(evt)"
     onclick="svgMouseClick(evt)"
     inkscape:label="#Hochrhein-Bodensee" />
  <text
     id="RegionText-Baden-W&#252;rttemberg-X1"
     class="regionText"
     x="38.068962"
     y="44.413784"
     visibility="visible"
     style="visibility:visible"
     onmouseover="svgTextMouseOver(evt)"
     onmouseout="svgTextMouseOut(evt)"
     onclick="svgTextMouseClick(evt)"
     inkscape:label="#Baden-W&#252;rttemberg">Baden-</text>
  <text
     id="RegionText-Baden-W&#252;rttemberg-X2"
     class="regionText"
     x="16.91954"
     y="82.48275"
     visibility="visible"
     style="visibility:visible"
     onmouseover="svgTextMouseOver(evt)"
     onmouseout="svgTextMouseOut(evt)"
     onclick="svgTextMouseClick(evt)"
     inkscape:label="#Baden-W&#252;rttemberg">W&#252;rttemberg</text>
  <text
     id="RegionText-Heilbronn-Franken-X"
     class="regionText"
     x="258.02313"
     y="118.43681"
     visibility="visible"
     style="visibility:visible"
     onmouseover="svgTextMouseOver(evt)"
     onmouseout="svgTextMouseOut(evt)"
     onclick="svgTextMouseClick(evt)"
     inkscape:label="#Baden-W&#252;rttemberg">Heilbronn-Franken</text>
  <text
     id="RegionText-Rhein-Neckar-Odenwald-X1"
     class="regionText"
     x="164.96559"
     y="61.333305"
     visibility="visible"
     style="visibility:visible"
     onmouseover="svgTextMouseOver(evt)"
     onmouseout="svgTextMouseOut(evt)"
     onclick="svgTextMouseClick(evt)"
     inkscape:label="#Baden-W&#252;rttemberg">Rhein-</text>
  <text
     id="RegionText-Rhein-Neckar-Odenwald-X2"
     class="regionText"
     x="164.96559"
     y="76.137909"
     visibility="visible"
     style="visibility:visible"
     onmouseover="svgTextMouseOver(evt)"
     onmouseout="svgTextMouseOut(evt)"
     onclick="svgTextMouseClick(evt)"
     inkscape:label="#Baden-W&#252;rttemberg">Neckar-</text>
  <text
     id="RegionText-Rhein-Neckar-Odenwald-X3"
     class="regionText"
     x="169.19548"
     y="90.94252"
     visibility="visible"
     style="visibility:visible"
     onmouseover="svgTextMouseOver(evt)"
     onmouseout="svgTextMouseOut(evt)"
     onclick="svgTextMouseClick(evt)"
     inkscape:label="#Baden-W&#252;rttemberg">Odenwald</text>
  <text
     id="RegionText-Mittlerer_Oberrhein-X1"
     class="regionText"
     x="148.04604"
     y="133.24142"
     visibility="visible"
     style="visibility:visible"
     onmouseover="svgTextMouseOver(evt)"
     onmouseout="svgTextMouseOut(evt)"
     onclick="svgTextMouseClick(evt)"
     inkscape:label="#Baden-W&#252;rttemberg">Mittlerer</text>
  <text
     id="RegionText-Mittlerer_Oberrhein-X"
     class="regionText"
     x="84.597694"
     y="207.26448"
     visibility="visible"
     style="visibility:visible"
     onmouseover="svgTextMouseOver(evt)"
     onmouseout="svgTextMouseOut(evt)"
     onclick="svgTextMouseClick(evt)"
     inkscape:label="#Baden-W&#252;rttemberg">Oberrhein</text>
  <text
     id="RegionText-Ludwigsburg-Rems-Murr-X1"
     class="regionText"
     x="232.64381"
     y="158.62076"
     visibility="visible"
     style="visibility:visible"
     onmouseover="svgTextMouseOver(evt)"
     onmouseout="svgTextMouseOut(evt)"
     onclick="svgTextMouseClick(evt)"
     inkscape:label="#Baden-W&#252;rttemberg">Ludwigsburg-</text>
  <text
     id="RegionText-Ludwigsburg-Rems-Murr-X2"
     class="regionText"
     x="238.98865"
     y="175.54031"
     visibility="visible"
     style="visibility:visible"
     onmouseover="svgTextMouseOver(evt)"
     onmouseout="svgTextMouseOut(evt)"
     onclick="svgTextMouseClick(evt)"
     inkscape:label="#Baden-W&#252;rttemberg">Rems-Murr</text>
  <text
     id="RegionText-Nordschwarzwald-X1"
     class="regionText"
     x="143.62108"
     y="232.11116"
     visibility="visible"
     style="visibility:visible"
     onmouseover="svgTextMouseOver(evt)"
     onmouseout="svgTextMouseOut(evt)"
     onclick="svgTextMouseClick(evt)"
     inkscape:label="#Baden-W&#252;rttemberg">Nord-</text>
  <text
     id="RegionText-Nordschwarzwald-X2"
     class="regionText"
     x="133.04636"
     y="249.0307"
     visibility="visible"
     style="visibility:visible"
     onmouseover="svgTextMouseOver(evt)"
     onmouseout="svgTextMouseOut(evt)"
     onclick="svgTextMouseClick(evt)"
     inkscape:label="#Baden-W&#252;rttemberg">schwarz-</text>
  <text
     id="RegionText-Nordschwarzwald-X3"
     class="regionText"
     x="145.73602"
     y="265.95029"
     visibility="visible"
     style="visibility:visible"
     onmouseover="svgTextMouseOver(evt)"
     onmouseout="svgTextMouseOut(evt)"
     onclick="svgTextMouseClick(evt)"
     inkscape:label="#Baden-W&#252;rttemberg">wald</text>
  <text
     id="RegionText-Ostw&#252;rttemberg-X1"
     class="regionText"
     x="370.11438"
     y="179.7702"
     visibility="visible"
     style="visibility:visible"
     onmouseover="svgTextMouseOver(evt)"
     onmouseout="svgTextMouseOut(evt)"
     onclick="svgTextMouseClick(evt)"
     inkscape:label="#Baden-W&#252;rttemberg">Ost-</text>
  <text
     id="RegionText-Ostw&#252;rttemberg-X2"
     class="regionText"
     x="348.96509"
     y="196.68976"
     visibility="visible"
     style="visibility:visible"
     onmouseover="svgTextMouseOver(evt)"
     onmouseout="svgTextMouseOut(evt)"
     onclick="svgTextMouseClick(evt)"
     inkscape:label="#Baden-W&#252;rttemberg">w&#252;rttemberg</text>
  <text
     id="RegionText-Stuttgart-B&#246;blingen-X1"
     class="regionText"
     x="211.49437"
     y="205.14954"
     visibility="visible"
     style="visibility:visible"
     onmouseover="svgTextMouseOver(evt)"
     onmouseout="svgTextMouseOut(evt)"
     onclick="svgTextMouseClick(evt)"
     inkscape:label="#Baden-W&#252;rttemberg">Stuttgart-</text>
  <text
     id="RegionText-Stuttgart-B&#246;blingen-X2"
     class="regionText"
     x="203.03459"
     y="230.52887"
     visibility="visible"
     style="visibility:visible"
     onmouseover="svgTextMouseOver(evt)"
     onmouseout="svgTextMouseOut(evt)"
     onclick="svgTextMouseClick(evt)"
     inkscape:label="#Baden-W&#252;rttemberg">B&#246;blingen</text>
  <text
     id="RegionText-Neckar-Fils-X"
     class="regionText"
     x="281.28735"
     y="224.18404"
     visibility="visible"
     style="visibility:visible"
     onmouseover="svgTextMouseOver(evt)"
     onmouseout="svgTextMouseOut(evt)"
     onclick="svgTextMouseClick(evt)"
     inkscape:label="#Baden-W&#252;rttemberg">Neckar-Fils</text>
  <text
     id="RegionText-S&#252;dlicher_Oberrhein-X1"
     class="regionText"
     x="50.758606"
     y="296.09186"
     visibility="visible"
     style="visibility:visible"
     onmouseover="svgTextMouseOver(evt)"
     onmouseout="svgTextMouseOut(evt)"
     onclick="svgTextMouseClick(evt)"
     inkscape:label="#Baden-W&#252;rttemberg">S&#252;dlicher</text>
  <text
     id="RegionText-S&#252;dlicher_Oberrhein-X2"
     class="regionText"
     x="50.758606"
     y="310.89636"
     visibility="visible"
     style="visibility:visible"
     onmouseover="svgTextMouseOver(evt)"
     onmouseout="svgTextMouseOut(evt)"
     onclick="svgTextMouseClick(evt)"
     inkscape:label="#Baden-W&#252;rttemberg">Oberrhein</text>
  <text
     id="RegionText-Ulm-Biberach-X1"
     class="regionText"
     x="327.8158"
     y="291.862"
     visibility="visible"
     style="visibility:visible"
     onmouseover="svgTextMouseOver(evt)"
     onmouseout="svgTextMouseOut(evt)"
     onclick="svgTextMouseClick(evt)"
     inkscape:label="#Baden-W&#252;rttemberg">Ulm-</text>
  <text
     id="RegionText-Ulm-Biberach-X2"
     class="regionText"
     x="327.8158"
     y="308.78143"
     visibility="visible"
     style="visibility:visible"
     onmouseover="svgTextMouseOver(evt)"
     onmouseout="svgTextMouseOut(evt)"
     onclick="svgTextMouseClick(evt)"
     inkscape:label="#Baden-W&#252;rttemberg">Biberach</text>
  <text
     id="RegionText-Neckar-Alb-X"
     class="regionText"
     x="224.18404"
     y="287.63214"
     visibility="visible"
     style="visibility:visible"
     onmouseover="svgTextMouseOver(evt)"
     onmouseout="svgTextMouseOut(evt)"
     onclick="svgTextMouseClick(evt)"
     inkscape:label="#Baden-W&#252;rttemberg">Neckar-Alb</text>
  <text
     id="RegionText-Schwarzwald-Baar-Heuberg-X1"
     class="regionText"
     x="118.43681"
     y="332.04565"
     visibility="visible"
     style="visibility:visible"
     onmouseover="svgTextMouseOver(evt)"
     onmouseout="svgTextMouseOut(evt)"
     onclick="svgTextMouseClick(evt)"
     inkscape:label="#Baden-W&#252;rttemberg">Schwarzwald</text>
  <text
     id="RegionText-Schwarzwald-Baar-Heuberg-X2"
     class="regionText"
     x="135.35635"
     y="348.96509"
     visibility="visible"
     style="visibility:visible"
     onmouseover="svgTextMouseOver(evt)"
     onmouseout="svgTextMouseOut(evt)"
     onclick="svgTextMouseClick(evt)"
     inkscape:label="#Baden-W&#252;rttemberg">-Baar</text>
  <text
     id="RegionText-Schwarzwald-Baar-Heuberg-X3"
     class="regionText"
     x="135.35635"
     y="365.88452"
     visibility="visible"
     style="visibility:visible"
     onmouseover="svgTextMouseOver(evt)"
     onmouseout="svgTextMouseOut(evt)"
     onclick="svgTextMouseClick(evt)"
     inkscape:label="#Baden-W&#252;rttemberg">-Heuberg</text>
  <text
     id="RegionText-Bodensee-Oberschwaben-X1"
     class="regionText"
     x="268.59778"
     y="380.68903"
     visibility="visible"
     style="visibility:visible"
     onmouseover="svgTextMouseOver(evt)"
     onmouseout="svgTextMouseOut(evt)"
     onclick="svgTextMouseClick(evt)"
     inkscape:label="#Baden-W&#252;rttemberg">Bodensee-</text>
  <text
     id="RegionText-Bodensee-Oberschwaben-X2"
     class="regionText"
     x="268.59778"
     y="397.60846"
     visibility="visible"
     style="visibility:visible"
     onmouseover="svgTextMouseOver(evt)"
     onmouseout="svgTextMouseOut(evt)"
     onclick="svgTextMouseClick(evt)"
     inkscape:label="#Baden-W&#252;rttemberg">Oberschwaben</text>
  <text
     id="RegionText-Hochrhein-Bodensee-X"
     class="regionText"
     x="59.218365"
     y="416.64282"
     visibility="visible"
     style="visibility:visible"
     onmouseover="svgTextMouseOver(evt)"
     onmouseout="svgTextMouseOut(evt)"
     onclick="svgTextMouseClick(evt)"
     inkscape:label="#Baden-W&#252;rttemberg">Hochrhein-Bodensee</text>
</svg>
